{"title":"Denikaina Ready (2012) TELUGU PDVD","uid":7771266,"size":1503313920,"categoryP":"video","categoryS":"movies","magnet":"?xt=urn:btih:957c96ab479c16f9626e85e09d0785406e3e8f82&amp;dn=Denikaina+Ready+%282012%29+TELUGU+PDVD&amp;tr=udp%3A%2F%2Ftracker.openbittorrent.com%3A80&amp;tr=udp%3A%2F%2Fopen.demonii.com%3A1337&amp;tr=udp%3A%2F%2Ftracker.coppersurfer.tk%3A6969&amp;tr=udp%3A%2F%2Fexodus.desync.com%3A6969","seeders":1,"leechers":0,"uploader":"rajanuk","files":6,"time":1351536894,"description":"Complete name                    : Denikaina Ready (2012)\nFormat                           : MPEG-PS\nFile size                        : 1 .4 GB\nOverall bit rate                 : 1 494 Kbps\n\nVideo\nID                               : 224 (0xE0)\nFormat                           : MPEG Video\nFormat version                   : Version 2\nFormat profile                   : Main@Main\nFormat settings, BVOP            : Yes\nFormat settings, Matrix          : Default\nBit rate mode                    : Variable\nBit rate                         : 1 272 Kbps\nNominal bit rate                 : 9 608 Kbps\nWidth                            : 720 pixels\nHeight                           : 480 pixels\nDisplay aspect ratio             : 16:9\nFrame rate                       : 29.970 fps\nStandard                         : NTSC\nColor space                      : YUV\nChroma subsampling               : 4:2:0\nBit depth                        : 8 bits\nScan type                        : Progressive\nCompression mode                 : Lossy\nBits/(Pixel*Frame)               : 0.123\nStream size                      : 872 MiB (85%)\n\nAudio\nID                               : 128 (0x80)\nFormat                           : AC-3\nFormat/Info                      : Audio Coding 3\nMode extension                   : CM (complete main)\nDuration                         : 1h 35mn\nBit rate mode                    : Constant\nBit rate                         : 192 Kbps\nChannel(s)                       : 2 channels\nChannel positions                : Front: L R\nSampling rate                    : 48.0 KHz\nBit depth                        : 16 bits\nCompression mode                 : Lossy\nStream size                      : 132 MiB (13%)\n\n\nSCREEN SHOTS \n\n\n &lt;a href=&quot;\nhttp://i.imgur.com/Jg60W.png&quot; rel=&quot;nofollow&quot; target=&quot;_NEW&quot;&gt;\nhttp://i.imgur.com/Jg60W.png&lt;/a&gt;\n &lt;a href=&quot;\nhttp://i.imgur.com/ondiD.png&quot; rel=&quot;nofollow&quot; target=&quot;_NEW&quot;&gt;\nhttp://i.imgur.com/ondiD.png&lt;/a&gt;\n &lt;a href=&quot;\nhttp://i.imgur.com/k7Heh.png&quot; rel=&quot;nofollow&quot; target=&quot;_NEW&quot;&gt;\nhttp://i.imgur.com/k7Heh.png&lt;/a&gt;\n &lt;a href=&quot;\nhttp://i.imgur.com/gzlky.png&quot; rel=&quot;nofollow&quot; target=&quot;_NEW&quot;&gt;\nhttp://i.imgur.com/gzlky.png&lt;/a&gt;\n &lt;a href=&quot;\nhttp://i.imgur.com/R9cog.png&quot; rel=&quot;nofollow&quot; target=&quot;_NEW&quot;&gt;\nhttp://i.imgur.com/R9cog.png&lt;/a&gt;\n\n","torrent":{"xt":"urn:btih:957c96ab479c16f9626e85e09d0785406e3e8f82","amp;dn":"Denikaina+Ready+%282012%29+TELUGU+PDVD","amp;tr":["udp%3A%2F%2Ftracker.openbittorrent.com%3A80","udp%3A%2F%2Fopen.demonii.com%3A1337","udp%3A%2F%2Ftracker.coppersurfer.tk%3A6969","udp%3A%2F%2Fexodus.desync.com%3A6969"],"infoHash":"957c96ab479c16f9626e85e09d0785406e3e8f82","infoHashBuffer":{"type":"Buffer","data":[149,124,150,171,71,156,22,249,98,110,133,224,157,7,133,64,110,62,143,130]},"announce":[],"urlList":[]}}